<svg width="50" height="51" viewBox="0 0 50 51" fill="none" xmlns="http://www.w3.org/2000/svg">
<path d="M41.5153 38.6922C43.6651 36.0984 45.1862 33.0013 45.9136 29.7361L49.5595 30.5484C48.7041 34.3884 46.9169 38.0288 44.3913 41.0758L41.5153 38.6922ZM40.3208 5.17865C37.1824 2.76937 33.4772 1.1206 29.6054 0.410885L28.9318 4.08495C32.2236 4.68857 35.3755 6.09131 38.046 8.14175L40.3208 5.17865ZM1.06183 17.8L4.63553 18.887C5.60871 15.6864 7.35908 12.7118 9.69714 10.2846L7.00696 7.69327C4.26175 10.5431 2.20583 14.0381 1.06183 17.8ZM8.36761 43.7931C11.3183 46.4305 14.8882 48.3537 18.6918 49.3543L19.6423 45.742C16.407 44.8906 13.369 43.2538 10.8566 41.0081L8.36761 43.7931ZM3.17278 37.3236L6.43073 35.4963C4.79042 32.5717 3.85734 29.2508 3.73258 25.893L0 26.0322C0.146674 29.9794 1.24386 33.8838 3.17278 37.3236ZM15.3706 6.0684C18.393 4.52024 21.6566 3.73532 25.0705 3.73532V0C21.1153 0 17.1723 0.94902 13.6675 2.74397L15.3706 6.0684ZM50 22.2623C49.559 18.3454 48.1699 14.5346 45.9833 11.2421L42.8718 13.3087C44.7317 16.1094 45.9131 19.3502 46.2883 22.6806L50 22.2623ZM26.9566 50.1056C30.8911 49.8115 34.7517 48.5674 38.1207 46.5077L36.1723 43.321C33.3071 45.0724 30.0243 46.1305 26.6784 46.3805L26.9566 50.1056Z" fill="#F738FA"/>
</svg>
