<svg width="23" height="24" viewBox="0 0 23 24" fill="none" xmlns="http://www.w3.org/2000/svg">
<path fill-rule="evenodd" clip-rule="evenodd" d="M22.211 0L20.9439 6.03726L17.2172 10.9565L14.4595 19.5279L13.1179 14.3851L4.84457 10.9565L7.60234 9.01863L3.72656 8.27329L11.4036 4.91925L22.211 0ZM15.2792 9.01861C16.3494 9.01861 17.217 8.15099 17.217 7.08072C17.217 6.01046 16.3494 5.14284 15.2792 5.14284C14.2089 5.14284 13.3413 6.01046 13.3413 7.08072C13.3413 8.15099 14.2089 9.01861 15.2792 9.01861Z" fill="#2AF020"/>
<path d="M0 13.5653L4.99378 12.1492L12 15.2796L12.3727 20.7206L10.5838 17.5156L5.21739 24.0001L5.81366 17.2175L1.26708 18.5591L4.17391 14.8324L0 13.5653Z" fill="#F738FA"/>
</svg>
