<svg width="22" height="18" viewBox="0 0 22 18" fill="none" xmlns="http://www.w3.org/2000/svg">
<path fill-rule="evenodd" clip-rule="evenodd" d="M19.7679 0.117306C20.0326 0.0124427 20.3216 -0.023015 20.6054 0.0145637C20.8891 0.0521424 21.1573 0.161407 21.3825 0.331164C21.6077 0.500921 21.7819 0.725068 21.8871 0.980642C21.9923 1.23621 22.0248 1.51403 21.9812 1.78561C21.3536 5.70141 20.203 12.8768 19.5922 16.6857C19.55 16.9493 19.4375 17.1979 19.2658 17.4076C19.0941 17.6173 18.8689 17.7809 18.612 17.8827C18.3551 17.9845 18.0751 18.0209 17.7993 17.9885C17.5234 17.9561 17.2608 17.856 17.0371 17.6978C14.8764 16.1706 11.637 13.8807 9.99226 12.7177C9.86534 12.628 9.7605 12.5126 9.68515 12.3797C9.6098 12.2469 9.56577 12.0997 9.55617 11.9488C9.54658 11.7978 9.57165 11.6466 9.62962 11.5059C9.68759 11.3653 9.77705 11.2385 9.89167 11.1347C11.3987 9.76911 14.4004 7.04939 16.4655 5.17803C16.5142 5.13368 16.5438 5.07349 16.5486 5.00927C16.5534 4.94505 16.5331 4.88143 16.4915 4.83086C16.45 4.7803 16.3902 4.74644 16.324 4.73592C16.2578 4.7254 16.1899 4.73898 16.1336 4.774C13.4856 6.43094 9.43021 8.96828 7.44262 10.2119C7.07013 10.445 6.6515 10.6018 6.21293 10.6724C5.77436 10.7431 5.32531 10.7262 4.89389 10.6226C3.79945 10.3602 2.22082 9.98146 0.815967 9.6446C0.59602 9.59187 0.399022 9.4739 0.253033 9.3075C0.107044 9.14109 0.0195092 8.93473 0.00289639 8.71781C-0.0137165 8.50089 0.0414402 8.28447 0.16051 8.09937C0.279579 7.91428 0.456489 7.76996 0.666041 7.68695C5.55649 5.74895 15.127 1.95663 19.7679 0.117306Z" fill="#2E31BC"/>
</svg>
