<svg width="23" height="19" viewBox="0 0 23 19" fill="none" xmlns="http://www.w3.org/2000/svg">
<path d="M22.1539 2.84845C21.33 3.20984 20.4522 3.44938 19.5369 3.56568C20.4785 3.00353 21.1971 2.12014 21.5349 1.05538C20.6571 1.57876 19.6879 1.94845 18.6549 2.15476C17.8214 1.26722 16.6334 0.717529 15.3374 0.717529C12.8229 0.717529 10.7986 2.75845 10.7986 5.26045C10.7986 5.62045 10.8291 5.96661 10.9039 6.29614C7.128 6.11199 3.78693 4.3023 1.54246 1.54553C1.15062 2.22538 0.92077 3.00353 0.92077 3.84122C0.92077 5.41414 1.73077 6.80845 2.93816 7.61568C2.20846 7.60184 1.49262 7.38999 0.886154 7.0563C0.886154 7.07015 0.886154 7.08814 0.886154 7.10614C0.886154 9.31322 2.46046 11.1465 4.52493 11.5688C4.15523 11.6698 3.75231 11.7183 3.33416 11.7183C3.04339 11.7183 2.74985 11.7017 2.47431 11.6408C3.06277 13.4394 4.73262 14.7617 6.71816 14.8046C5.17293 16.0134 3.21092 16.7417 1.08692 16.7417C0.714462 16.7417 0.357231 16.7251 0 16.6794C2.01185 17.9768 4.39616 18.7175 6.96739 18.7175C15.3249 18.7175 19.8942 11.7945 19.8942 5.79353C19.8942 5.59276 19.8872 5.39891 19.8776 5.20645C20.7789 4.56676 21.5363 3.76784 22.1539 2.84845Z" fill="#2E31BC"/>
</svg>
