<svg width="66" height="66" viewBox="0 0 66 66" fill="none" xmlns="http://www.w3.org/2000/svg">
<path d="M37.3161 33.7537C37.3161 40.6967 31.6147 46.3251 24.5821 46.3251C17.5495 46.3251 11.8477 40.6967 11.8477 33.7537C11.8477 26.8107 17.549 21.1818 24.5821 21.1818C31.6152 21.1818 37.3161 26.8107 37.3161 33.7537Z" fill="#2AF020"/>
<path d="M51.2853 33.7535C51.2853 40.2893 48.4346 45.5872 44.918 45.5872C41.4015 45.5872 38.5508 40.2888 38.5508 33.7535C38.5508 27.2181 41.4015 21.9197 44.918 21.9197C48.4346 21.9193 51.2853 27.2177 51.2853 33.7535Z" fill="#2AF020"/>
<path d="M56.9993 33.7538C56.9993 39.6096 55.9968 44.3565 54.7599 44.3565C53.5229 44.3565 52.5205 39.6096 52.5205 33.7538C52.5205 27.898 53.5229 23.1511 54.7599 23.1511C55.9968 23.1511 56.9993 27.898 56.9993 33.7538Z" fill="#2AF020"/>
</svg>
