<svg width="66" height="66" viewBox="0 0 66 66" fill="none" xmlns="http://www.w3.org/2000/svg">
<path fill-rule="evenodd" clip-rule="evenodd" d="M44.6518 20.176C45.0489 20.0187 45.4825 19.9655 45.9081 20.0218C46.3336 20.0782 46.7359 20.2421 47.0738 20.4967C47.4116 20.7514 47.6728 21.0876 47.8306 21.471C47.9884 21.8543 48.0371 22.271 47.9718 22.6784C47.0304 28.5521 45.3045 39.3153 44.3883 45.0285C44.3249 45.4239 44.1563 45.7969 43.8987 46.1114C43.6411 46.4259 43.3034 46.6714 42.918 46.824C42.5326 46.9767 42.1127 47.0314 41.6989 46.9828C41.285 46.9342 40.8913 46.784 40.5556 46.5468C37.3146 44.2559 32.4555 40.8211 29.9884 39.0766C29.798 38.942 29.6408 38.7689 29.5277 38.5696C29.4147 38.3703 29.3487 38.1496 29.3343 37.9231C29.3199 37.6966 29.3575 37.4699 29.4444 37.2589C29.5314 37.0479 29.6656 36.8578 29.8375 36.702C32.0981 34.6537 36.6005 30.5741 39.6983 27.767C39.7713 27.7005 39.8157 27.6102 39.8229 27.5139C39.8301 27.4176 39.7996 27.3221 39.7373 27.2463C39.675 27.1705 39.5854 27.1197 39.4861 27.1039C39.3867 27.0881 39.2849 27.1085 39.2004 27.161C35.2284 29.6464 29.1453 33.4524 26.1639 35.3178C25.6052 35.6675 24.9772 35.9026 24.3194 36.0087C23.6615 36.1147 22.988 36.0892 22.3408 35.934C20.6992 35.5403 18.3312 34.9722 16.224 34.4669C15.894 34.3878 15.5985 34.2109 15.3795 33.9612C15.1606 33.7116 15.0293 33.4021 15.0043 33.0767C14.9794 32.7513 15.0622 32.4267 15.2408 32.1491C15.4194 31.8714 15.6847 31.6549 15.9991 31.5304C23.3347 28.6234 37.6906 22.9349 44.6518 20.176Z" fill="#2AF020"/>
</svg>
