<svg width="66" height="66" viewBox="0 0 66 66" fill="none" xmlns="http://www.w3.org/2000/svg">
<path d="M49 23.7955C47.81 24.3175 46.542 24.6635 45.22 24.8315C46.58 24.0195 47.618 22.7435 48.106 21.2055C46.838 21.9615 45.438 22.4955 43.946 22.7935C42.742 21.5115 41.026 20.7175 39.154 20.7175C35.522 20.7175 32.598 23.6655 32.598 27.2795C32.598 27.7995 32.642 28.2995 32.75 28.7755C27.296 28.5095 22.47 25.8955 19.228 21.9135C18.662 22.8955 18.33 24.0195 18.33 25.2295C18.33 27.5015 19.5 29.5155 21.244 30.6815C20.19 30.6615 19.156 30.3555 18.28 29.8735C18.28 29.8935 18.28 29.9195 18.28 29.9455C18.28 33.1335 20.554 35.7815 23.536 36.3915C23.002 36.5375 22.42 36.6075 21.816 36.6075C21.396 36.6075 20.972 36.5835 20.574 36.4955C21.424 39.0935 23.836 41.0035 26.704 41.0655C24.472 42.8115 21.638 43.8635 18.57 43.8635C18.032 43.8635 17.516 43.8395 17 43.7735C19.906 45.6475 23.35 46.7175 27.064 46.7175C39.136 46.7175 45.736 36.7175 45.736 28.0495C45.736 27.7595 45.726 27.4795 45.712 27.2015C47.014 26.2775 48.108 25.1235 49 23.7955Z" fill="#2AF020"/>
</svg>
