<svg width="146" height="149" fill="none" xmlns="http://www.w3.org/2000/svg"><path fill-rule="evenodd" clip-rule="evenodd" d="M128.857 69.828C128.819 36.802 102.056 10.039 69.031 10a59.396 59.396 0 00-24.851 5.394l-3.843-8.367A69.056 69.056 0 0168.975.798c38.14-.016 69.071 30.89 69.086 69.03 0 33.041-26.785 59.826-59.826 59.826s-59.827-26.785-59.827-59.826c0-27.958 22.665-50.623 50.623-50.623s50.622 22.665 50.622 50.623c0 22.874-18.543 41.418-41.418 41.418S36.816 92.702 36.816 69.828c0-17.792 14.423-32.215 32.215-32.215 17.791 0 32.214 14.423 32.214 32.215 0 12.708-10.302 23.01-23.01 23.01-12.708 0-23.01-10.302-23.01-23.01 0-7.625 6.18-13.806 13.806-13.806 7.625 0 13.806 6.18 13.806 13.806v4.602h-9.204v-4.602a4.602 4.602 0 10-9.204 0c0 7.625 6.18 13.806 13.806 13.806 7.625 0 13.806-6.181 13.806-13.806 0-12.709-10.302-23.01-23.01-23.01-12.709 0-23.01 10.302-23.01 23.01 0 17.791 14.422 32.214 32.214 32.214 17.791 0 32.214-14.423 32.214-32.214 0-22.875-18.543-41.419-41.418-41.419S27.612 46.953 27.612 69.828c0 27.958 22.665 50.622 50.623 50.622s50.622-22.664 50.622-50.622zM31.69 11.759l4.988 7.732a61.33 61.33 0 00-6.838 5.13l-6.024-6.957a69.823 69.823 0 017.874-5.905zm-7.883 18.896l-6.959-6.02a70.033 70.033 0 00-5.9 7.87l7.737 4.989a60.995 60.995 0 015.122-6.839zm19.941 99c33.027 19.047 75.239 7.714 94.286-25.312l7.966 4.602a78.235 78.235 0 01-67.785 39.138C35.007 148.071-.011 113.035 0 69.828a68.433 68.433 0 016.222-28.68l8.371 3.829a59.342 59.342 0 00-5.389 24.85 69.03 69.03 0 0034.544 59.828z" fill="#F738FA"/></svg>