<svg width="50" height="51" fill="none" xmlns="http://www.w3.org/2000/svg"><path d="M41.515 38.692a21.396 21.396 0 004.399-8.956l3.645.812a25.145 25.145 0 01-5.168 10.528l-2.876-2.384zM40.321 5.18A25.119 25.119 0 0029.605.41l-.673 3.674a21.366 21.366 0 019.114 4.057l2.275-2.963zM1.06 17.8l3.575 1.087a21.464 21.464 0 015.061-8.602l-2.69-2.592A25.218 25.218 0 001.062 17.8zm7.307 25.993a25.184 25.184 0 0010.324 5.561l.95-3.612a21.436 21.436 0 01-8.785-4.734l-2.49 2.785zm-5.195-6.47l3.258-1.827a21.338 21.338 0 01-2.698-9.603L0 26.033a25.093 25.093 0 003.173 11.29zM15.37 6.069a21.077 21.077 0 019.7-2.333V0c-3.956 0-7.899.949-11.404 2.744l1.704 3.324zM50 22.262a25.085 25.085 0 00-4.017-11.02l-3.111 2.067a21.337 21.337 0 013.416 9.372L50 22.262zM26.957 50.106a25.084 25.084 0 0011.164-3.598l-1.949-3.187a21.333 21.333 0 01-9.494 3.06l.279 3.725z" fill="#F738FA"/></svg>