<svg width="22" height="18" fill="none" xmlns="http://www.w3.org/2000/svg"><path fill-rule="evenodd" clip-rule="evenodd" d="M19.768.117a1.678 1.678 0 011.614.214c.226.17.4.394.505.65.105.255.138.533.094.805l-2.389 14.9a1.519 1.519 0 01-.326.722 1.61 1.61 0 01-.654.475 1.678 1.678 0 01-1.575-.185l-7.045-4.98a1.047 1.047 0 01-.307-.338 1.002 1.002 0 01.207-1.245l6.573-5.957a.251.251 0 00.026-.347.278.278 0 00-.358-.057l-8.69 5.438a3.362 3.362 0 01-2.549.41L.816 9.646a1.084 1.084 0 01-.563-.338A1 1 0 01.16 8.1a1.07 1.07 0 01.506-.412L19.768.117z" fill="#2E31BC"/></svg>