<svg width="23" height="19" fill="none" xmlns="http://www.w3.org/2000/svg"><path d="M22.154 2.848a9.47 9.47 0 01-2.617.718 4.516 4.516 0 001.998-2.51 9.075 9.075 0 01-2.88 1.099 4.54 4.54 0 00-7.856 3.106c0 .36.03.706.105 1.035-3.776-.184-7.117-1.994-9.362-4.75A4.573 4.573 0 00.921 3.84a4.55 4.55 0 002.017 3.775 4.485 4.485 0 01-2.052-.56v.05a4.563 4.563 0 003.639 4.463c-.37.1-.773.15-1.19.15-.292 0-.585-.017-.86-.078.588 1.798 2.258 3.12 4.243 3.164a9.126 9.126 0 01-5.631 1.937c-.373 0-.73-.017-1.087-.063a12.786 12.786 0 006.967 2.039c8.358 0 12.927-6.924 12.927-12.924 0-.201-.007-.395-.016-.588a9.063 9.063 0 002.276-2.358z" fill="#2E31BC"/></svg>