<svg width="146" height="149" viewBox="0 0 146 149" fill="none" xmlns="http://www.w3.org/2000/svg">
<path fill-rule="evenodd" clip-rule="evenodd" d="M128.857 69.8277C128.819 36.8023 102.056 10.0391 69.0307 10.0012C60.4548 9.98391 51.977 11.8239 44.1797 15.3948L40.337 7.02825C49.3274 2.9261 59.0932 0.801396 68.9752 0.797369C107.115 0.781837 138.046 31.6877 138.061 69.8277C138.061 102.869 111.276 129.654 78.2348 129.654C45.1936 129.654 18.4083 102.869 18.4083 69.8277C18.4083 41.8697 41.0727 19.2052 69.0307 19.2052C96.9887 19.2052 119.653 41.8697 119.653 69.8277C119.653 92.7024 101.11 111.246 78.2348 111.246C55.3601 111.246 36.8164 92.7024 36.8164 69.8277C36.8164 52.0362 51.2392 37.6134 69.0307 37.6134C86.8222 37.6134 101.245 52.0362 101.245 69.8277C101.245 82.536 90.9431 92.8379 78.2348 92.8379C65.5266 92.8379 55.2246 82.536 55.2246 69.8277C55.2246 62.2027 61.4057 56.0216 69.0307 56.0216C76.6557 56.0216 82.8368 62.2027 82.8368 69.8277V74.4298H73.6328V69.8277C73.6328 67.2859 71.5725 65.2257 69.0307 65.2257C66.489 65.2257 64.4287 67.2859 64.4287 69.8277C64.4287 77.4527 70.6098 83.6338 78.2348 83.6338C85.8598 83.6338 92.0409 77.4527 92.0409 69.8277C92.0409 57.1195 81.739 46.8175 69.0307 46.8175C56.3225 46.8175 46.0205 57.1195 46.0205 69.8277C46.0205 87.6192 60.4433 102.042 78.2348 102.042C96.0263 102.042 110.449 87.6192 110.449 69.8277C110.449 46.953 91.9055 28.4093 69.0307 28.4093C46.156 28.4093 27.6123 46.953 27.6123 69.8277C27.6123 97.7857 50.2768 120.45 78.2348 120.45C106.193 120.45 128.857 97.7857 128.857 69.8277ZM31.6896 11.7591L36.6782 19.4906C34.2823 21.0397 31.9971 22.7543 29.8396 24.6218L23.8155 17.6635C26.298 15.5127 28.9293 13.5395 31.6896 11.7591ZM23.8067 30.6552L16.8484 24.6357C14.6998 27.1174 12.7284 29.7469 10.9486 32.5052L18.6846 37.4938C20.23 35.0973 21.9417 32.8121 23.8067 30.6552ZM43.7484 129.655C76.7747 148.702 118.987 137.369 138.034 104.343L146 108.945C132.024 133.169 106.181 148.09 78.2145 148.083C35.0068 148.071 -0.0110087 113.035 0.000208784 69.8276C-0.0242396 59.9301 2.09874 50.145 6.22217 41.1477L14.5933 44.9766C11.0224 52.7736 9.18387 61.2517 9.20429 69.8276C9.19394 94.5121 22.3653 117.323 43.7484 129.655Z" fill="#F738FA"/>
</svg>
