<svg width="66" height="66" fill="none" xmlns="http://www.w3.org/2000/svg"><path fill-rule="evenodd" clip-rule="evenodd" d="M44.652 20.176c.397-.157.83-.21 1.256-.154.426.056.828.22 1.166.475.338.254.599.59.757.974.157.383.206.8.14 1.207-.94 5.874-2.666 16.637-3.583 22.35a2.278 2.278 0 01-.49 1.083c-.257.315-.595.56-.98.713a2.516 2.516 0 01-2.362-.277l-10.568-7.47a1.572 1.572 0 01-.46-.507 1.504 1.504 0 01.31-1.868l9.86-8.935a.377.377 0 00.039-.52.418.418 0 00-.537-.085l-13.036 8.156a4.968 4.968 0 01-1.845.69 5.048 5.048 0 01-1.978-.074l-6.117-1.467a1.626 1.626 0 01-.845-.506 1.5 1.5 0 01-.139-1.812 1.6 1.6 0 01.76-.619l28.652-11.354z" fill="#2AF020"/></svg>