<svg width="66" height="66" fill="none" xmlns="http://www.w3.org/2000/svg"><path d="M49 23.796a13.71 13.71 0 01-3.78 1.035 6.523 6.523 0 002.886-3.625 13.11 13.11 0 01-4.16 1.588 6.574 6.574 0 00-4.792-2.076 6.558 6.558 0 00-6.556 6.561c0 .52.044 1.02.152 1.497-5.454-.267-10.28-2.88-13.522-6.863a6.605 6.605 0 00-.898 3.317 6.57 6.57 0 002.914 5.451 6.479 6.479 0 01-2.964-.808v.072c0 3.188 2.274 5.837 5.256 6.447a6.548 6.548 0 01-1.72.215 5.8 5.8 0 01-1.242-.111c.85 2.597 3.262 4.508 6.13 4.57a13.182 13.182 0 01-8.134 2.797c-.538 0-1.054-.023-1.57-.09a18.469 18.469 0 0010.064 2.944c12.072 0 18.672-10 18.672-18.668 0-.29-.01-.57-.024-.848A13.087 13.087 0 0049 23.796z" fill="#2AF020"/></svg>